<?xml version="1.0" standalone="no"?><!DOCTYPE svg PUBLIC "-//W3C//DTD SVG 1.1//EN" "http://www.w3.org/Graphics/SVG/1.1/DTD/svg11.dtd"><svg t="1764436365469" class="icon" viewBox="0 0 1024 1024" version="1.1" xmlns="http://www.w3.org/2000/svg" p-id="6370" xmlns:xlink="http://www.w3.org/1999/xlink" width="200" height="200"><path d="M761.856 29.696c-112.64 57.344-300.032 234.496-427.008 404.48-32.768 45.056-81.92 125.952-107.52 181.248-41.984 87.04-50.176 97.28-68.608 90.112-34.816-13.312-37.888-10.24-16.384 17.408 35.84 45.056 25.6 68.608-20.48 45.056-23.552-13.312-26.624 2.048-4.096 24.576 14.336 14.336 13.312 17.408-12.288 30.72l-28.672 15.36 49.152 1.024c26.624 0 48.128 2.048 48.128 5.12s-21.504 43.008-47.104 88.064c-25.6 46.08-45.056 84.992-41.984 87.04 12.288 13.312 37.888-15.36 81.92-93.184C291.84 706.56 512 397.312 633.856 272.384 778.24 122.88 805.888 108.544 683.008 245.76c-88.064 98.304-234.496 291.84-347.136 459.776l-99.328 148.48 32.768 11.264c38.912 13.312 45.056 11.264 27.648-10.24-11.264-13.312-8.192-15.36 22.528-15.36 47.104 0 136.192-26.624 151.552-46.08 10.24-13.312 9.216-15.36-11.264-15.36-19.456 0-16.384-4.096 17.408-21.504 23.552-11.264 51.2-29.696 60.416-40.96 18.432-19.456 17.408-19.456-20.48-19.456h-38.912l63.488-31.744c36.864-18.432 89.088-57.344 121.856-90.112l56.32-57.344-28.672-3.072c-28.672-4.096-28.672-4.096 11.264-21.504 21.504-10.24 49.152-28.672 59.392-40.96 19.456-21.504 19.456-21.504 0-21.504-14.336 0-11.264-5.12 14.336-21.504 18.432-12.288 39.936-34.816 48.128-51.2l15.36-28.672-38.912 6.144-37.888 5.12 53.248-31.744C870.4 276.48 926.72 215.04 957.44 154.624 993.28 83.968 950.272 12.288 868.352 3.072c-34.816-4.096-57.344 2.048-106.496 26.624z" p-id="6371"></path></svg>