<?xml version="1.0" standalone="no"?><!DOCTYPE svg PUBLIC "-//W3C//DTD SVG 1.1//EN" "http://www.w3.org/Graphics/SVG/1.1/DTD/svg11.dtd"><svg t="1764432566059" class="icon" viewBox="0 0 1024 1024" version="1.1" xmlns="http://www.w3.org/2000/svg" p-id="5514" xmlns:xlink="http://www.w3.org/1999/xlink" width="200" height="200"><path d="M767.436 212.362q-16.727 0-66.909 0-10.909 0-44.364 0-4.364 0-17.455 0-5.091 0-5.091-5.091 0-5.818 0-17.455 0-2.182 0-9.455 0-21.818-16-37.091-15.273-15.273-37.818-15.273-49.455 0-148.364 0-21.818 0-37.091 15.273-15.273 15.273-15.273 37.091 0 2.909 0 9.455 0 4.364 0 17.455 0 5.091-5.091 5.091-5.818 0-17.455 0-10.909 0-44.364 0-16.727 0-68.364 0-5.818 0-10.182 4.364-5.091 4.364-5.091 10.909 0 12.364 12.364 14.545 4.364 0 13.818 0 1.455 0 5.091 3.636 1.455 24.727 3.636 73.455 6.545 125.818 26.182 504 0.727 20.364 16.727 34.909 15.273 14.545 35.636 14.545 109.091 0 327.273 0 21.091 0 36.364-14.545 15.273-14.545 16-34.909 8.727-167.273 26.182-502.545 0.727-18.909 3.636-74.909 0-3.636 5.091-3.636 4.364 0 13.818 0 12.364-2.182 12.364-14.545 0-6.545-5.091-10.909-4.364-4.364-10.182-4.364zM408.89 189.816q0-2.182 0-9.455 0-9.455 6.545-16 6.545-6.545 16-6.545 49.455 0 148.364 0 9.455 0 16 6.545 6.545 6.545 6.545 16 0 2.909 0 9.455 0 4.364 0 17.455 0 5.091-5.091 5.091-5.818 0-17.455 0-37.091 0-148.364 0-4.364 0-17.455 0-5.091 0-5.091-5.091 0-5.818 0-17.455zM717.981 322.907q-6.545 124.364-26.182 498.909-0.727 9.455-6.545 15.273-6.545 5.818-16 5.818-109.091 0-327.273 0-9.455 0-16-5.818-5.818-5.818-6.545-15.273-8.727-165.091-26.182-495.273-0.727-19.636-3.636-79.273 0-2.909 0.727-4.364 1.455-0.727 4.364-0.727 141.091 0 423.273 0 2.182 0 3.636 0.727 1.455 1.455 1.455 4.364-1.455 25.455-5.091 75.636zM491.072 311.998q7.273 0 29.091 0 0 115.636 0 462.545-7.273 0-29.091 0 0-115.636 0-462.545zM399.436 775.998q-5.818-115.636-24-461.818 7.273-0.727 29.818-2.182 5.818 115.636 24 462.545-7.273 0-29.818 1.455zM611.799 775.998q-7.273 0-29.818-1.455 5.818-115.636 24-461.818 7.273 0.727 29.818 1.455-5.818 115.636-24 461.818z" p-id="5515"></path></svg>