<?xml version="1.0" standalone="no"?><!DOCTYPE svg PUBLIC "-//W3C//DTD SVG 1.1//EN"
        "http://www.w3.org/Graphics/SVG/1.1/DTD/svg11.dtd">
<svg t="1747213039619" class="icon" viewBox="0 0 1024 1024" version="1.1" xmlns="http://www.w3.org/2000/svg"
     p-id="10747" width="16" height="16">
    <path d="M90.267152 497.291636a62.060606 62.060606 0 0 1 43.876848-18.183757h186.181818a31.030303 31.030303 0 0 1 0 62.060606h-186.181818v248.242424h744.727273v-248.242424h-186.181818a31.030303 31.030303 0 0 1 0-62.060606h186.181818a62.060606 62.060606 0 0 1 62.060606 62.060606v248.242424a62.060606 62.060606 0 0 1-62.060606 62.060606h-744.727273a62.060606 62.060606 0 0 1-62.060606-62.060606v-248.242424a62.060606 62.060606 0 0 1 18.183758-43.876849z"
          fill="#2c2c2c" p-id="10748"></path>
    <path d="M506.507636 75.713939a31.030303 31.030303 0 0 1 31.030303 31.030303v403.39394a31.030303 31.030303 0 1 1-62.060606 0v-403.39394a31.030303 31.030303 0 0 1 31.030303-31.030303z"
          fill="#2c2c2c" p-id="10749"></path>
    <path d="M484.569212 84.805818a31.030303 31.030303 0 0 1 43.876849 0l186.181818 186.181818a31.030303 31.030303 0 1 1-43.876849 43.876849l-164.243394-164.243394-164.243394 164.243394a31.030303 31.030303 0 1 1-43.876848-43.876849l186.181818-186.181818z"
          fill="#2c2c2c" p-id="10750"></path>
    <path d="M739.234909 711.835152a46.545455 46.545455 0 1 0 0-93.09091 46.545455 46.545455 0 0 0 0 93.09091z"
          fill="#2c2c2c" p-id="10751"></path>
</svg>