<?xml version="1.0" standalone="no"?><!DOCTYPE svg PUBLIC "-//W3C//DTD SVG 1.1//EN" "http://www.w3.org/Graphics/SVG/1.1/DTD/svg11.dtd"><svg t="1746789481865" class="icon" viewBox="0 0 1024 1024" version="1.1" xmlns="http://www.w3.org/2000/svg" p-id="4615" width="16" height="16" xmlns:xlink="http://www.w3.org/1999/xlink"><path d="M128 234.688a192 192 0 0 1 192-192h576v938.624H320a192 192 0 0 1-192-192V234.688z m85.312 394.944A191.104 191.104 0 0 1 320 597.312h490.688V128H320c-58.88 0-106.688 47.744-106.688 106.688v394.944z m128 53.056H320A106.688 106.688 0 0 0 320 896h490.688v-213.312H597.312v196.992l-128-64-128 64v-196.992z m170.688 0H426.688v58.88l42.624-21.248 42.688 21.312v-58.944zM341.312 213.312H426.88V298.88H341.312V213.312z m0 128H426.88V426.88H341.312V341.312z" p-id="4616"></path></svg>