<?xml version="1.0" standalone="no"?><!DOCTYPE svg PUBLIC "-//W3C//DTD SVG 1.1//EN" "http://www.w3.org/Graphics/SVG/1.1/DTD/svg11.dtd"><svg t="1746795917557" class="icon" viewBox="0 0 1024 1024" version="1.1" xmlns="http://www.w3.org/2000/svg" p-id="7670" xmlns:xlink="http://www.w3.org/1999/xlink" width="16" height="16"><path d="M575.85152 336.16896a61.66528 61.66528 0 0 0-61.99808-61.43488 61.66016 61.66016 0 0 0-61.43488 61.99296 61.65504 61.65504 0 0 0 61.98784 61.43488 61.6704 61.6704 0 0 0 61.44512-61.99296z" p-id="7671"></path><path d="M797.26592 103.84384c-104.77056 0-199.43936-29.62944-279.07072-80.04608-79.50336 50.41664-180.08576 80.04608-284.86144 80.04608-44.86656 0-88.62208-5.5296-133.12-15.70304v460.70784c14.79168 181.09952 162.58048 344.94976 414.66368 464.91136 252.19072-119.9616 414.77632-283.81184 414.77632-464.91136V86.26688c-44.50304 11.38688-84.80256 17.57696-132.38784 17.57696zM557.4656 847.04256l-82.048 0.36864-1.68448-373.19168C414.47936 456.704 371.03104 402.07872 370.37056 337.09568c-0.3584-79.13984 63.9744-144.0512 143.10912-144.4096 79.50336-0.72192 144.0512 63.24224 144.41472 143.10912a142.99136 142.99136 0 0 1-102.1184 138.05056l0.95232 209.1008 102.36928-0.46592 0.18432 41.38496-102.24128 29.51168 0.42496 93.66528z" p-id="7672"></path></svg>