<?xml version="1.0" standalone="no"?><!DOCTYPE svg PUBLIC "-//W3C//DTD SVG 1.1//EN" "http://www.w3.org/Graphics/SVG/1.1/DTD/svg11.dtd"><svg t="1765005020525" class="icon" viewBox="0 0 1024 1024" version="1.1" xmlns="http://www.w3.org/2000/svg" p-id="2513" xmlns:xlink="http://www.w3.org/1999/xlink" width="200" height="200"><path d="M1014.346 574.71c2.407-43.292-33.67-57.731-33.67-57.731l-199.622-93.786v-206.83c0-43.29-36.077-60.131-36.077-60.131s-158.736-69.747-206.84-96.198c-24.044-14.434-50.495 0-50.495 0s-149.127 72.154-194.807 93.791c-43.297 19.247-43.297 60.132-43.297 60.132v206.84s-132.28 62.528-187.577 86.587c-52.917 24.044-50.511 72.15-50.511 72.15v209.229c0 45.698 38.484 62.528 38.484 62.528s127.467 72.148 187.577 103.413c45.697 21.653 74.555 0 74.555 0l199.62-108.143s158.736 81.775 194.812 108.225c43.292 31.265 72.149 4.814 72.149 4.814s175.559-98.68 204.433-113.039c28.869-14.351 28.924-53.01 28.924-53.01s2.407-175.578 2.407-218.841h-0.065z m-735.95 84.192L95.615 569.914l182.781-88.994 187.582 88.994-187.582 88.988z m206.84 132.27L309.66 889.788V714.21l175.576-84.181v161.143z m28.857-481.017l-199.62-93.791 199.62-96.208 206.839 96.208-206.839 93.791z m31.264 57.726l175.576-84.175v141.906l-175.576 86.571V367.881z m206.84 291.021L569.4 569.913l175.576-88.994 190 88.994-182.779 88.989z m202.011 137.083l-173.154 91.358V711.805l173.154-84.177v168.357z m0 0" fill="#2c2c2c" p-id="2514"></path></svg>