<?xml version="1.0" standalone="no"?><!DOCTYPE svg PUBLIC "-//W3C//DTD SVG 1.1//EN" "http://www.w3.org/Graphics/SVG/1.1/DTD/svg11.dtd"><svg t="1765005121747" class="icon" viewBox="0 0 1024 1024" version="1.1" xmlns="http://www.w3.org/2000/svg" p-id="5302" xmlns:xlink="http://www.w3.org/1999/xlink" width="200" height="200"><path d="M298.666667 213.333333h85.333333v85.333334H298.666667zM298.666667 341.333333h85.333333v85.333334H298.666667zM298.666667 469.333333h85.333333v85.333334H298.666667z" fill="#ffffff" p-id="5303"></path><path d="M853.333333 85.333333H277.333333C196.266667 85.333333 128 153.6 128 234.666667v512C128 827.733333 196.266667 896 277.333333 896H298.666667v85.333333l128-64 128 64v-85.333333h298.666666c25.6 0 42.666667-17.066667 42.666667-42.666667V128c0-25.6-17.066667-42.666667-42.666667-42.666667z m-42.666666 725.333334h-256v-85.333334H298.666667v85.333334h-21.333334c-34.133333 0-64-29.866667-64-64S243.2 682.666667 277.333333 682.666667H810.666667v128z m0-213.333334H256V170.666667h554.666667v426.666666z" fill="#ffffff" p-id="5304"></path></svg>