<?xml version="1.0" standalone="no"?><!DOCTYPE svg PUBLIC "-//W3C//DTD SVG 1.1//EN" "http://www.w3.org/Graphics/SVG/1.1/DTD/svg11.dtd"><svg t="1746879178687" class="icon" viewBox="0 0 1024 1024" version="1.1" xmlns="http://www.w3.org/2000/svg" p-id="4787" xmlns:xlink="http://www.w3.org/1999/xlink" width="16" height="16"><path d="M768 585.142857a36.790857 36.790857 0 0 1 36.790857 36.790857v145.846857h145.846857a36.790857 36.790857 0 1 1 0 73.581715h-145.846857v145.846857a36.790857 36.790857 0 1 1-73.581714 0v-145.846857H585.362286a36.790857 36.790857 0 0 1 0-73.581715h145.846857V621.933714A36.790857 36.790857 0 0 1 768 585.142857z" fill="#515151" p-id="4788"></path><path d="M512 883.492571H72.411429l91.940571-392.411428h788.992L931.254857 585.142857h72.338286l19.894857-84.992a80.603429 80.603429 0 0 0-14.555429-56.32 71.460571 71.460571 0 0 0-47.542857-29.257143V286.208c0-10.093714-1.828571-20.041143-5.412571-29.403429a76.946286 76.946286 0 0 0-15.725714-24.868571 71.68 71.68 0 0 0-23.405715-16.530286 68.022857 68.022857 0 0 0-27.648-5.705143h-399.36L464.457143 126.829714a76.580571 76.580571 0 0 0-25.965714-38.765714 68.973714 68.973714 0 0 0-42.422858-14.921143H72.411429a68.022857 68.022857 0 0 0-27.794286 5.705143 71.68 71.68 0 0 0-23.405714 16.676571 77.019429 77.019429 0 0 0-15.725715 25.014858c-3.584 9.362286-5.412571 19.456-5.339428 29.549714v733.403428a81.92 81.92 0 0 0 0 9.069715v12.8c4.388571 12.8 11.849143 24.137143 21.796571 32.768h4.681143A68.315429 68.315429 0 0 0 59.245714 950.857143H512v-67.364572zM395.702857 150.089143l42.788572 136.557714h450.706285v127.488h-727.04a69.705143 69.705143 0 0 0-43.154285 16.969143 77.604571 77.604571 0 0 0-24.795429 41.325714L71.972571 567.076571 72.411429 150.089143h323.291428z" fill="#515151" p-id="4789"></path></svg>