<?xml version="1.0" standalone="no"?><!DOCTYPE svg PUBLIC "-//W3C//DTD SVG 1.1//EN"
        "http://www.w3.org/Graphics/SVG/1.1/DTD/svg11.dtd">
<svg t="1746789699855" class="icon" viewBox="0 0 1024 1024" version="1.1" xmlns="http://www.w3.org/2000/svg" p-id="9824"
     width="200" height="200">
    <path d="M999.276357 627.345016c0.464616-1.793823 0.913072-3.601786 1.357487-5.409749-0.438355 1.807963-0.898931 3.607846-1.357487 5.409749z"
          fill="#AFE6FF" p-id="9825"></path>
    <path d="M512.00101 0C318.482296 0 199.286016 109.146429 198.958764 109.330256c-7.468201 34.474523-20.457254 84.501569-20.457254 121.21231 0 277.727373 234.204954 502.813729 511.932328 502.81373 118.355931 0 227.098346-55.105503 312.997804-123.527312 0.349472-2.143295 11.439659-46.295976 11.439659-106.960713C1014.869281 225.140898 789.726363 0 512.00101 0z"
          fill="#6EC186" p-id="9826"></path>
    <path d="M1003.429622 609.828984c-85.899458 68.419788-194.686315 109.330256-313.042246 109.330256-277.727373 0-502.868271-225.142918-502.868271-502.868271a504.573211 504.573211 0 0 1 11.439659-106.960713l-0.034341 0.028281C83.273366 201.491933 9.130719 343.512989 9.130719 502.868271c0 277.727373 225.142918 502.868271 502.868271 502.868272 234.754413 0 431.878954-160.882455 487.277367-378.391527 0.458556-1.799883 0.919132-3.601786 1.357487-5.409749 0.208067-0.86055 2.104913-8.918611 2.795778-12.106283z"
          fill="#61AAB7" p-id="9827"></path>
    <path d="M967.201678 492.51743c0 110.762486-41.100354 211.925597-108.881801 289.070069-80.299823 91.39203-198.045692 126.113002-329.263412 126.113002-241.982226 0-416.380973-180.968016-416.380972-422.948222 0-184.072865 91.743522-333.867153 252.585575-398.737677 50.600746-20.408772 105.886036-31.642384 163.795397-31.642384 241.980206-0.00202 438.145212 196.162987 438.145213 438.145212z"
          fill="#F1D333" p-id="9828"></path>
    <path d="M740.971962 223.250112c-4.686564 0-9.425649-1.304966-13.657697-4.030041a337.741648 337.741648 0 0 0-20.677442-12.306269c-12.233547-6.696534-16.718104-22.043009-10.021569-34.274536 6.694514-12.237587 22.047049-16.718104 34.274536-10.02157a387.289937 387.289937 0 0 1 23.78633 14.154634c11.722469 7.555064 15.100027 23.182329 7.542943 34.902778a25.230681 25.230681 0 0 1-21.247101 11.575004zM640.764344 175.35828a25.190279 25.190279 0 0 1-7.829793-1.248403c-33.420046-10.89626-68.371306-16.419133-103.878086-16.419133a336.622529 336.622529 0 0 0-77.047509 8.90043c-13.584974 3.197772-27.169948-5.219862-30.3657-18.792715-3.195752-13.574874 5.217842-27.167928 18.792716-30.36368a387.150552 387.150552 0 0 1 88.622513-10.245798c40.831685 0 81.047249 6.359182 119.529592 18.90382 13.257723 4.322951 20.503716 18.574548 16.182785 31.834291-3.478561 10.657892-13.372867 17.431188-24.006518 17.431188z"
          fill="#F9EF63" p-id="9829"></path>
    <path d="M694.5164 813.239984c-241.982226 0-438.145212-196.165007-438.145212-438.145212 0-110.762486 41.120555-211.909436 108.902001-289.053909C204.431135 150.911387 90.909233 308.444565 90.909233 492.51743c0 241.982226 196.165007 438.145212 438.145212 438.145212 131.21772 0 248.945409-57.699274 329.245232-149.093323-50.600746 20.410792-105.873915 31.670665-163.783277 31.670665z"
          fill="#EAB14D" p-id="9830"></path>
    <path d="M473.199496 395.883317a64.193801 53.374303 90 1 0 106.748606 0 64.193801 53.374303 90 1 0-106.748606 0Z"
          fill="#EAB14D" p-id="9831"></path>
    <path d="M526.311189 379.720733m-48.033236 0a48.033236 48.033236 0 1 0 96.066473 0 48.033236 48.033236 0 1 0-96.066473 0Z"
          fill="#783C28" p-id="9832"></path>
    <path d="M674.73385 393.38045a64.193801 53.374303 90 1 0 106.748606 0 64.193801 53.374303 90 1 0-106.748606 0Z"
          fill="#EAB14D" p-id="9833"></path>
    <path d="M727.847564 377.219886m-48.033237 0a48.033236 48.033236 0 1 0 96.066473 0 48.033236 48.033236 0 1 0-96.066473 0Z"
          fill="#783C28" p-id="9834"></path>
    <path d="M536.08025 607.891737c-7.575264-8.191386-7.074287-20.972372 1.117099-28.547637 73.36088-67.827907 157.042301-83.212764 248.719161-45.728336 10.32458 4.221947 15.275773 16.017139 11.051806 26.34374-4.221947 10.32458-16.015119 15.273753-26.343739 11.051806-76.936405-31.458558-144.319897-19.029064-205.99871 37.997526-8.169165 7.555064-20.952171 7.096508-28.545617-1.117099z"
          fill="#783C28" p-id="9835"></path>
    <path d="M593.870427 305.802313a15.112147 15.112147 0 0 1-10.714453-4.436075c-14.88792-14.88994-34.682591-23.089406-55.737786-23.089405s-40.849866 8.199466-55.737785 23.089405a15.150529 15.150529 0 1 1-21.424868-21.424867c20.610779-20.612799 48.015056-31.963576 77.164673-31.963576s56.551874 11.350776 77.164673 31.961556a15.150529 15.150529 0 0 1-10.714454 25.862962z"
          fill="#EAB14D" p-id="9836"></path>
    <path d="M676.269103 300.503668a15.154569 15.154569 0 0 1-5.629936-29.22234l103.688199-41.463967a15.150529 15.150529 0 1 1 11.251793 28.135542l-103.688199 41.463967a15.118208 15.118208 0 0 1-5.621857 1.086798z"
          fill="#EAB14D" p-id="9837"></path>
    <path d="M759.627313 641.806701l-317.290454 36.781443 9.775121 84.329864 317.290454-36.781444c23.287373-2.698814 39.977195-23.766129 37.276361-47.053502-2.696794-23.285353-23.764109-39.975175-47.051482-37.276361z"
          fill="#E7A52E" p-id="9838"></path>
    <path d="M447.338553 724.203356l64.054416-125.597883c13.47993-26.432623 2.981624-58.790112-23.453019-72.270043-26.432623-13.47993-58.790112-2.981624-72.270042 23.453019l-96.531089 189.278586z"
          fill="#DA8059" p-id="9839"></path>
    <path d="M610.047152 744.020248l-158.001835 18.315979 9.775122 84.329864 154.43237-17.901865c23.287373-2.698814 39.977195-23.766129 37.276361-47.053502-2.698814-23.287373-20.194645-40.38929-43.482018-37.690476z"
          fill="#E7A52E" p-id="9840"></path>
    <path d="M606.485768 829.307625l-144.729972 16.778705 9.775122 84.329864 144.729971-16.778706c23.287373-2.698814 39.977195-23.766129 37.276361-47.053502-2.698814-23.287373-23.766129-39.977195-47.051482-37.276361z"
          fill="#E7A52E" p-id="9841"></path>
    <path d="M641.78852 952.818776c-2.698814-23.287373-23.766129-39.977195-47.053502-37.276361l2.460446-0.28483-29.125377-251.244249-181.812406 21.077415-81.023008 58.650727 28.466834 207.055207 144.97238 40.029717 163.241897-29.408186a42.595207 42.595207 0 0 0-0.127264-8.59944z"
          fill="#E7A52E" p-id="9842"></path>
    <path d="M651.280831 885.819097l1.212043-3.775512-145.445077 16.669622c-15.033365 1.743321-25.806401 15.342435-24.06308 30.37378l133.274152-15.449499c16.554478-1.919067 29.731398-13.136518 35.021962-27.818391zM652.486813 796.978416l-155.145455 17.984688c-15.033365 1.743321-25.806401 15.342435-24.063079 30.37378l142.97655-16.574678c18.014989-2.086733 32.036298-15.18487 36.231984-31.78379zM463.450636 760.566646l306.194206-34.486644c16.851428-1.898866 31.268671-13.617295 35.698686-29.985927 0.157565-0.58178 0.303011-1.169621 0.436336-1.759481l-318.266149 35.858271c-15.031345 1.743321-25.806401 15.340415-24.063079 30.373781z"
          fill="#DA8059" p-id="9843"></path>
    <path d="M522.717484 974.690079c-92.666694 10.742735-176.49558-55.669103-187.236295-148.335797-6.318781-54.505542 14.063731-105.946638 50.774472-141.263531l-18.948261 2.195817c-92.666694 10.742735-159.078532 94.571621-148.335797 187.238315 10.742735 92.666694 94.571621 159.078532 187.236295 148.335797l75.029458-8.698423 123.272783-14.289979c20.564318-2.383683 35.973416-19.093706 37.437966-39.003521z"
          fill="#DA8059" p-id="9844"></path>
</svg>